<svg width="28" height="23" viewBox="0 0 28 23" fill="none" xmlns="http://www.w3.org/2000/svg">
    <path d="M24.8 6.49981C24.8 6.69981 24.8 6.99981 24.8 7.19981C24.8 14.4998 19.2 22.9998 9 22.9998C6 22.9998 3 22.0998 0.5 20.4998C0.9 20.5998 1.4 20.5998 1.8 20.5998C4.3 20.5998 6.7 19.7998 8.7 18.1998C6.3 18.1998 4.2 16.5998 3.5 14.2998C4.3 14.4998 5.2 14.3998 6 14.1998C3.4 13.6998 1.5 11.3998 1.5 8.79981C1.5 8.79981 1.5 8.79981 1.5 8.69981C2.3 9.09981 3.1 9.39981 4 9.39981C1.6 7.79981 0.799999 4.49981 2.3 1.99981C5.1 5.49981 9.3 7.59981 13.7 7.79981C13.3 5.89981 13.9 3.79981 15.3 2.49981C17.5 0.399813 21.1 0.499814 23.2 2.69981C24.4 2.49981 25.6 1.99981 26.7 1.39981C26.3 2.69981 25.4 3.79981 24.3 4.49981C25.4 4.39981 26.5 4.09981 27.5 3.59981C26.8 4.69981 25.9 5.69981 24.8 6.49981Z" fill="white"/>
</svg>
