<svg width="30" height="22" viewBox="0 0 30 22" fill="none" xmlns="http://www.w3.org/2000/svg">
    <path d="M29.1 18.3C26.6 20.1 24.3 21.3 21.9 22C21.3 21.2 20.8 20.4 20.4 19.5C21.2 19.2 22.1 18.8 22.8 18.3C22.6 18.1 22.4 18 22.2 17.8C17.6 20 12.5 20 7.79996 17.8C7.59996 18 7.39997 18.1 7.19997 18.3C7.99997 18.8 8.79997 19.2 9.59997 19.5C9.19997 20.4 8.59997 21.2 8.09997 22C5.79997 21.3 3.39997 20.2 0.899965 18.3C0.399965 12.9 1.39997 7.4 5.09997 1.8C6.99997 0.999999 8.89997 0.4 11 0C11.3 0.5 11.6 1.1 11.8 1.6C13.9 1.3 16.1 1.3 18.3 1.6C18.5 1.1 18.8 0.5 19.1 0C21.2 0.4 23.1 0.999999 25 1.8C28.1 6.6 29.7 12.1 29.1 18.3Z" fill="white"/>
    <path d="M29.1 18.3C26.6 20.1 24.3 21.3 21.9 22C21.3 21.2 20.8 20.4 20.4 19.5C21.2 19.2 22.1 18.8 22.8 18.3C22.6 18.1 22.4 18 22.2 17.8C17.6 20 12.5 20 7.79996 17.8C7.59996 18 7.39997 18.1 7.19997 18.3C7.99997 18.8 8.79997 19.2 9.59997 19.5C9.19997 20.4 8.59997 21.2 8.09997 22C5.79997 21.3 3.39997 20.2 0.899965 18.3C0.399965 12.9 1.39997 7.4 5.09997 1.8C6.99997 0.999999 8.89997 0.4 11 0C11.3 0.5 11.6 1.1 11.8 1.6C13.9 1.3 16.1 1.3 18.3 1.6C18.5 1.1 18.8 0.5 19.1 0C21.2 0.4 23.1 0.999999 25 1.8C28.1 6.6 29.7 12.1 29.1 18.3Z" fill="white"/>
    <path d="M12.8 12.1002C12.8 13.7002 11.7 15.0002 10.2 15.0002C8.79998 15.0002 7.59998 13.7002 7.59998 12.1002C7.59998 10.5002 8.69998 9.2002 10.2 9.2002C11.7 9.2002 12.9 10.5002 12.8 12.1002ZM19.7 9.2002C18.3 9.2002 17.1 10.5002 17.1 12.1002C17.1 13.7002 18.3 15.0002 19.7 15.0002C21.1 15.0002 22.3 13.7002 22.3 12.1002C22.3 10.5002 21.1 9.2002 19.7 9.2002Z" fill="#3F37C9"/>
</svg>
