<svg width="40" height="22" viewBox="0 0 40 22" fill="none" xmlns="http://www.w3.org/2000/svg">
    <path d="M11.6 22C5.49998 22 0.599976 17.1 0.599976 11C0.599976 4.9 5.49998 0 11.6 0C17.7 0 22.6 4.9 22.6 11C22.6 17.1 17.7 22 11.6 22Z" fill="white"/>
    <path d="M33.5 17.5001C33.1 18.5001 32.6 19.4001 31.9 20.1001C31.4 20.7001 30.8 21.1001 30 21.3001C29 21.6001 28.1 21.4001 27.3 20.9001C26.5 20.4001 25.9 19.7001 25.4 18.9001C24.6 17.6001 24.1 16.2001 23.8 14.8001C23.5 13.3001 23.4 11.8001 23.4 10.3001C23.5 8.20008 23.9 6.10008 24.8 4.20008C25.2 3.30008 25.7 2.50008 26.4 1.80008C26.9 1.30008 27.6 0.800078 28.3 0.600078C29.3 0.400078 30.1 0.600078 30.9 1.10008C31.7 1.60008 32.3 2.40008 32.8 3.20008C33.5 4.40008 34 5.80008 34.3 7.10008C34.6 8.40008 34.7 9.60008 34.7 10.9001C34.7 13.2001 34.4 15.4001 33.5 17.5001Z" fill="white"/>
    <path d="M39.4 12.8998C39.3 14.2998 39.2 15.5998 39 16.9998C38.8 17.8998 38.7 18.6998 38.3 19.4998C38.2 19.6998 38.1 19.9998 37.9 20.0998C37.6 20.4998 37.3 20.3998 37 20.0998C36.7 19.7998 36.6 19.3998 36.4 18.9998C36.1 18.1998 35.9 17.3998 35.8 16.5998C35.7 15.6998 35.6 14.7998 35.5 13.8998C35.4 12.8998 35.4 11.8998 35.4 10.7998C35.5 9.7998 35.5 8.5998 35.6 7.3998C35.7 5.9998 35.9 4.5998 36.3 3.1998C36.4 2.7998 36.6 2.4998 36.8 2.0998C36.9 1.8998 37 1.7998 37.1 1.6998C37.3 1.4998 37.6 1.4998 37.8 1.6998C38 1.8998 38.1 2.0998 38.3 2.2998C38.6 2.9998 38.8 3.6998 39 4.3998C39.2 5.5998 39.4 6.6998 39.5 7.8998C39.4 9.5998 39.4 11.1998 39.4 12.8998Z" fill="white"/>
</svg>
