<svg width="28" height="23" viewBox="0 0 28 23" fill="none" xmlns="http://www.w3.org/2000/svg">
    <path d="M27.2999 1.9001C26.8999 5.8001 25.2999 15.1001 24.4999 19.5001C24.1999 21.3001 23.4999 21.9001 22.7999 22.0001C21.3999 22.1001 20.2999 21.1001 18.8999 20.2001C16.6999 18.8001 15.4999 17.9001 13.3999 16.5001C10.9999 14.9001 12.5999 14.0001 13.8999 12.6001C14.2999 12.2001 20.4999 6.5001 20.5999 6.0001C20.5999 5.9001 20.5999 5.7001 20.4999 5.6001C20.3999 5.5001 20.0999 5.5001 19.9999 5.6001C19.7999 5.6001 16.2999 7.9001 9.69994 12.4001C8.69994 13.1001 7.79994 13.4001 6.99994 13.4001C6.09994 13.4001 4.39994 12.9001 3.19994 12.5001C1.69994 12.0001 0.499944 11.7001 0.599944 10.9001C0.699944 10.5001 1.29994 10.0001 2.39994 9.5001C9.49994 6.4001 14.2999 4.3001 16.6999 3.4001C23.4999 0.600097 24.8999 0.100098 25.7999 0.100098C25.9999 0.100098 26.4999 0.100097 26.6999 0.400097C26.8999 0.600097 26.9999 0.900098 26.9999 1.1001C27.2999 1.1001 27.2999 1.6001 27.2999 1.9001Z" fill="white"/>
</svg>
